<svg width="65" height="65" viewBox="0 0 65 65" fill="none" xmlns="http://www.w3.org/2000/svg">
<g clip-path="url(#clip0_11_82)">
<path d="M18.2239 27.048C18.2239 27.8457 18.3101 28.4898 18.461 28.9615C18.6335 29.4358 18.8491 29.9533 19.151 30.5139C19.2588 30.6836 19.3019 30.8561 19.3019 31.0071C19.3019 31.2227 19.1725 31.4383 18.8922 31.6539L17.5366 32.5567C17.3728 32.6749 17.1779 32.7423 16.976 32.7508C16.7604 32.7508 16.5448 32.643 16.3319 32.4489C16.0424 32.1375 15.7834 31.7991 15.5584 31.4383C15.3175 31.0249 15.0945 30.6014 14.89 30.1689C13.2137 32.1471 11.1034 33.1362 8.56462 33.1362C6.75891 33.1362 5.31703 32.6214 4.26325 31.5892C3.20946 30.5543 2.67314 29.1798 2.67314 27.4576C2.67314 25.6303 3.31727 24.1426 4.62978 23.0269C5.94229 21.9084 7.68333 21.3478 9.8987 21.3478C10.6318 21.3478 11.3837 21.4125 12.1788 21.5203C12.9765 21.6281 13.7958 21.8006 14.6529 21.9946V20.4234C14.6529 18.7875 14.3106 17.6474 13.6422 16.9818C12.9549 16.3134 11.7934 15.9927 10.1386 15.9927C9.38393 15.9927 8.60775 16.0762 7.81269 16.2703C7.01764 16.4643 6.24145 16.7015 5.48952 17.0033C5.24435 17.1131 4.99227 17.2067 4.73489 17.2836C4.62404 17.3193 4.50895 17.3402 4.39261 17.3456C4.09076 17.3456 3.93984 17.13 3.93984 16.6799V15.6261C3.93984 15.2812 3.98296 15.0224 4.09076 14.8715C4.25356 14.6758 4.46046 14.5216 4.69446 14.4214C5.4464 14.0333 6.34925 13.7099 7.40304 13.4512C8.49999 13.1703 9.62885 13.0335 10.7611 13.0442C13.3215 13.0442 15.1919 13.6264 16.3966 14.7879C17.5797 15.9468 18.1807 17.7121 18.1807 20.0784V27.048H18.2239ZM9.49174 30.3198C10.2006 30.3198 10.9309 30.1904 11.7071 29.9317C12.4806 29.673 13.1705 29.2013 13.75 28.5572C14.095 28.1476 14.3537 27.6948 14.4831 27.1773C14.6097 26.6626 14.6987 26.0373 14.6987 25.3069V24.4041C14.0458 24.2449 13.3844 24.1225 12.7178 24.0375C12.0473 23.9524 11.3723 23.9091 10.6964 23.9082C9.25457 23.9082 8.20079 24.1885 7.48928 24.7706C6.78047 25.35 6.43819 26.1667 6.43819 27.242C6.43819 28.2527 6.69423 29.0073 7.23325 29.5221C7.74801 30.0611 8.49994 30.3198 9.49174 30.3198ZM26.7673 32.643C26.3792 32.643 26.1205 32.5783 25.948 32.4274C25.7755 32.298 25.6246 31.9962 25.4952 31.5892L20.4419 14.9577C20.3436 14.6789 20.2785 14.3894 20.2479 14.0953C20.2479 13.7503 20.4204 13.5563 20.7626 13.5563H22.8729C23.2799 13.5563 23.5602 13.6237 23.7084 13.7719C23.8836 13.9013 24.0129 14.2031 24.1396 14.6128L27.7564 28.8537L31.1118 14.6128C31.2196 14.1816 31.349 13.9013 31.5188 13.7719C31.7774 13.6133 32.0784 13.5381 32.3812 13.5563H34.1007C34.5103 13.5563 34.7906 13.6237 34.9631 13.7719C35.1329 13.9013 35.2865 14.2031 35.3701 14.6128L38.7686 29.0262L42.4905 14.6128C42.6199 14.1816 42.7708 13.9013 42.9217 13.7719C43.1714 13.6134 43.4648 13.5379 43.7599 13.5563H45.7624C46.1047 13.5563 46.3014 13.7315 46.3014 14.0953C46.3014 14.2031 46.2771 14.3109 46.2556 14.4403C46.2218 14.6242 46.1713 14.8046 46.1047 14.9793L40.922 31.6081C40.7926 32.0393 40.6417 32.3169 40.4692 32.4462C40.2264 32.602 39.9407 32.6775 39.6526 32.6618H37.8011C37.3941 32.6618 37.1138 32.5972 36.9386 32.4462C36.7688 32.2953 36.6179 32.015 36.5344 31.5838L33.1978 17.7094L29.8829 31.5622C29.7751 31.9935 29.6484 32.2738 29.4786 32.4247C29.3034 32.5756 29.0016 32.6403 28.6162 32.6403L26.7673 32.643ZM54.4083 33.2224C53.2898 33.2224 52.1713 33.0931 51.096 32.837C50.0206 32.5783 49.1825 32.298 48.6219 31.9746C48.2769 31.7832 48.0424 31.5676 47.9562 31.3736C47.8722 31.1833 47.8281 30.9779 47.8268 30.7699V29.673C47.8268 29.2229 47.9993 29.0073 48.32 29.0073C48.4494 29.0073 48.5788 29.0289 48.7081 29.072C48.8375 29.1151 49.0315 29.2013 49.2471 29.2876C49.9775 29.611 50.7726 29.867 51.6134 30.0395C52.4732 30.212 53.3114 30.2982 54.1738 30.2982C55.5267 30.2982 56.5832 30.0611 57.3136 29.5867C57.6637 29.3752 57.9516 29.0748 58.148 28.716C58.3445 28.3572 58.4425 27.9528 58.432 27.5439C58.4399 27.2669 58.3928 26.9911 58.2933 26.7325C58.1938 26.4739 58.044 26.2376 57.8526 26.0373C57.4645 25.6303 56.7314 25.2638 55.6776 24.9188L52.5594 23.9486C50.9882 23.4554 49.8266 22.725 49.1178 21.7575C48.424 20.8645 48.045 19.7673 48.0397 18.6366C48.0397 17.7337 48.2365 16.9386 48.6219 16.2487C49.01 15.5614 49.5247 14.9577 50.1716 14.4861C50.8184 13.9902 51.5461 13.6237 52.4085 13.3676C53.2709 13.1089 54.1738 13.0011 55.1198 13.0011C55.5914 13.0011 56.0873 13.0227 56.5616 13.0873C57.0548 13.152 57.5049 13.2383 57.9577 13.3245C58.3889 13.4323 58.7986 13.5401 59.184 13.6668C59.5721 13.7962 59.8739 13.9255 60.0895 14.0549C60.3435 14.1827 60.5648 14.3671 60.7364 14.5939C60.8753 14.8032 60.9424 15.0519 60.9277 15.3027V16.3134C60.9277 16.7662 60.7552 17.0033 60.4318 17.0033C60.1455 16.9705 59.8682 16.8826 59.6152 16.7446C58.3155 16.1705 56.907 15.8845 55.4863 15.9064C54.26 15.9064 53.2898 16.0978 52.6241 16.5074C51.9557 16.9171 51.6134 17.5396 51.6134 18.4209C51.6134 19.0246 51.829 19.5421 52.2603 19.9491C52.6888 20.3587 53.4838 20.7684 54.6239 21.1349L57.6801 22.0998C59.2271 22.5957 60.3483 23.2856 61.0139 24.1669C61.6796 25.0482 62.003 26.0589 62.003 27.1773C62.003 28.1017 61.809 28.9426 61.4452 29.673C61.0571 30.406 60.5396 31.0502 59.8739 31.5676C59.2055 32.1067 58.4105 32.4921 57.4861 32.7723C56.5158 33.0715 55.5079 33.2224 54.4083 33.2224ZM58.4752 43.6794C51.3978 48.9079 41.1133 51.6812 32.2734 51.6812C19.8813 51.6812 8.71825 47.0995 0.282586 39.4831C-0.383103 38.8821 0.217904 38.0628 1.01565 38.5372C10.1359 43.8276 21.3879 47.0348 33.0253 47.0348C40.8789 47.0348 49.5032 45.3989 57.4429 42.0435C58.6261 41.5045 59.6367 42.817 58.4752 43.6794ZM61.4236 40.3213C60.518 39.1624 55.4405 39.7634 53.1389 40.0437C52.4516 40.13 52.3438 39.5263 52.9691 39.0735C57.0117 36.2355 63.6605 37.0522 64.434 37.9981C65.2075 38.9684 64.2184 45.6145 60.4318 48.7974C59.8524 49.2933 59.2918 49.0346 59.5505 48.3904C60.4129 46.2613 62.3265 41.464 61.4236 40.3213Z" fill="black"/>
</g>
<defs>
<clipPath id="clip0_11_82">
<rect width="64.6824" height="64.6824" fill="white" transform="translate(-0.00317383)"/>
</clipPath>
</defs>
</svg>
