<svg width="109" height="45" viewBox="0 0 109 45" fill="none" xmlns="http://www.w3.org/2000/svg">
<g clip-path="url(#clip0_11_59)">
<path d="M20.3908 5.99302C19.1402 7.47376 17.1394 8.64166 15.1385 8.47482C14.8884 6.47269 15.868 4.34544 17.0143 3.03154C18.2648 1.50909 20.4533 0.424608 22.2249 0.341187C22.4333 2.42673 21.6204 4.47057 20.3908 5.99302ZM22.204 8.87107C19.307 8.70423 16.8267 10.5187 15.4511 10.5187C14.0547 10.5187 11.9497 8.9545 9.65701 8.99621C6.67657 9.03792 3.90455 10.7272 2.38307 13.4176C-0.743266 18.7983 1.57022 26.7651 4.59235 31.1447C6.07214 33.3137 7.84373 35.6912 10.1781 35.6078C12.3873 35.5244 13.2627 34.1688 15.9305 34.1688C18.6192 34.1688 19.3903 35.6078 21.7247 35.5661C24.1424 35.5244 25.6638 33.3971 27.1436 31.2281C28.8319 28.7672 29.5197 26.3688 29.5613 26.2437C29.5197 26.202 24.8927 24.4293 24.851 19.0903C24.8093 14.6272 28.4984 12.4999 28.6651 12.3748C26.5809 9.28818 23.3295 8.9545 22.204 8.87107ZM38.9403 2.82299V35.3367H43.9842V24.2207H50.9663C57.344 24.2207 61.8251 19.8411 61.8251 13.501C61.8251 7.16092 57.4274 2.82299 51.133 2.82299H38.9403ZM43.9842 7.0775H49.7991C54.176 7.0775 56.6771 9.41332 56.6771 13.5218C56.6771 17.6304 54.176 19.987 49.7783 19.987H43.9842V7.0775ZM71.0374 35.5869C74.2054 35.5869 77.1442 33.9811 78.4781 31.4367H78.5823V35.3367H83.2509V19.1528C83.2509 14.4603 79.4993 11.4363 73.726 11.4363C68.3696 11.4363 64.4096 14.5021 64.2637 18.7149H68.8073C69.1824 16.7127 71.0374 15.3988 73.5801 15.3988C76.6648 15.3988 78.3947 16.8379 78.3947 19.4865V21.2801L72.1003 21.6555C66.2437 22.01 63.0756 24.4084 63.0756 28.5795C63.0756 32.7923 66.3479 35.5869 71.0374 35.5869ZM72.3921 31.7287C69.7035 31.7287 67.9944 30.4356 67.9944 28.4544C67.9944 26.4105 69.641 25.2218 72.7881 25.0341L78.3947 24.6795V26.5148C78.3947 29.5597 75.8102 31.7287 72.3921 31.7287ZM89.4828 44.1794C94.4015 44.1794 96.715 42.3024 98.7367 36.6088L107.595 11.7491H102.467L96.5274 30.957H96.4232L90.4832 11.7491H85.2101L93.7554 35.4201L93.2969 36.8591C92.5257 39.2992 91.2752 40.2377 89.0451 40.2377C88.6491 40.2377 87.8779 40.196 87.5653 40.1543V44.0542C87.8571 44.1377 89.1076 44.1794 89.4828 44.1794Z" fill="black"/>
</g>
<defs>
<clipPath id="clip0_11_59">
<rect width="107.25" height="44" fill="white" transform="translate(0.894653 0.341187)"/>
</clipPath>
</defs>
</svg>
