<svg width="121" height="61" viewBox="0 0 121 61" fill="none" xmlns="http://www.w3.org/2000/svg">
<path d="M32.5217 26.7872H20.0017V30.5022H28.8817C28.4417 35.7022 24.1087 37.9342 20.0167 37.9342C18.7203 37.9399 17.4359 37.6872 16.2382 37.1911C15.0406 36.6949 13.9538 35.9651 13.0413 35.0444C12.1288 34.1236 11.4089 33.0302 10.9236 31.8282C10.4382 30.6261 10.1973 29.3394 10.2147 28.0432C10.2147 22.4192 14.5687 18.0892 20.0287 18.0892C24.2407 18.0892 26.7227 20.7742 26.7227 20.7742L29.3227 18.0802C29.3227 18.0802 25.9827 14.3632 19.8927 14.3632C12.1377 14.3632 6.13867 20.9082 6.13867 27.9772C6.13867 34.9042 11.7817 41.6592 20.0887 41.6592C27.3957 41.6592 32.7447 36.6532 32.7447 29.2512C32.7447 27.6892 32.5177 26.7872 32.5177 26.7872H32.5217Z" fill="#4885ED"/>
<path d="M42.7787 24.0962C37.6407 24.0962 33.9587 28.1132 33.9587 32.7962C33.9587 37.5502 37.5287 41.6412 42.8387 41.6412C47.6447 41.6412 51.5817 37.9682 51.5817 32.8982C51.5817 27.0982 47.0017 24.0952 42.7787 24.0952V24.0962ZM42.8287 27.5422C45.3547 27.5422 47.7487 29.5852 47.7487 32.8762C47.7487 36.0962 45.3647 38.1982 42.8167 38.1982C40.0167 38.1982 37.8167 35.9562 37.8167 32.8502C37.8167 29.8102 39.9967 27.5422 42.8367 27.5422H42.8287Z" fill="#DB3236"/>
<path d="M61.9596 24.0962C56.8216 24.0962 53.1396 28.1132 53.1396 32.7962C53.1396 37.5502 56.7096 41.6412 62.0196 41.6412C66.8256 41.6412 70.7626 37.9682 70.7626 32.8982C70.7626 27.0982 66.1826 24.0952 61.9596 24.0952V24.0962ZM62.0096 27.5422C64.5356 27.5422 66.9296 29.5852 66.9296 32.8762C66.9296 36.0962 64.5457 38.1982 61.9977 38.1982C59.1976 38.1982 56.9977 35.9562 56.9977 32.8502C56.9977 29.8102 59.1777 27.5422 62.0177 27.5422H62.0096Z" fill="#F4C20D"/>
<path d="M80.7726 24.1062C76.0566 24.1062 72.3506 28.2362 72.3506 32.8722C72.3506 38.1522 76.6476 41.6542 80.6906 41.6542C83.1906 41.6542 84.5206 40.6612 85.4906 39.5222V41.2522C85.4906 44.2792 83.6526 46.0922 80.8786 46.0922C78.1986 46.0922 76.8546 44.0992 76.3786 42.9692L73.0066 44.3692C74.2026 46.8992 76.6106 49.5362 80.9066 49.5362C85.6066 49.5362 89.1686 46.5832 89.1686 40.3892V24.6332H85.5046V26.1192C84.3746 24.8992 82.8266 24.1062 80.7746 24.1062H80.7726ZM81.1126 27.5462C83.4246 27.5462 85.7986 29.5202 85.7986 32.8912C85.7986 36.3182 83.4286 38.2062 81.0616 38.2062C78.5476 38.2062 76.2086 36.1662 76.2086 32.9232C76.2086 29.5552 78.6386 27.5462 81.1126 27.5462Z" fill="#4885ED"/>
<path d="M105.545 24.0852C101.097 24.0852 97.3616 27.6252 97.3616 32.8452C97.3616 38.3712 101.525 41.6482 105.962 41.6482C109.674 41.6482 111.962 39.6182 113.312 37.7982L110.279 35.7802C109.492 37.0002 108.176 38.1952 105.981 38.1952C103.515 38.1952 102.381 36.8452 101.678 35.5352L113.441 30.6552L112.841 29.2252C111.705 26.4252 109.053 24.0852 105.545 24.0852ZM105.698 27.4592C107.301 27.4592 108.454 28.3112 108.944 29.3332L101.088 32.6162C100.748 30.0742 103.158 27.4592 105.688 27.4592H105.698Z" fill="#DB3236"/>
<path d="M91.7446 41.1282H95.6086V15.2712H91.7446V41.1282Z" fill="#3CBA54"/>
</svg>
