<svg width="215" height="47" viewBox="0 0 215 47" fill="none" xmlns="http://www.w3.org/2000/svg">
<g clip-path="url(#clip0_11_72)">
<path d="M214.997 21.0116V17.2331H210.305V11.3588L210.147 11.4074L205.739 12.7558L205.653 12.7823V17.2331H198.697V14.7539C198.697 13.5993 198.955 12.7158 199.464 12.1265C199.969 11.5443 200.692 11.2484 201.613 11.2484C202.276 11.2484 202.962 11.4046 203.652 11.7124L203.825 11.7896V7.81026L203.744 7.78038C203.1 7.5489 202.224 7.43225 201.138 7.43225C199.769 7.43225 198.526 7.72998 197.441 8.32024C196.356 8.91128 195.502 9.75511 194.905 10.8281C194.309 11.8997 194.006 13.1374 194.006 14.5071V17.2331H190.739V21.0116H194.006V36.9297H198.697V21.0116H205.653V31.1274C205.653 35.2935 207.618 37.4049 211.493 37.4049C212.13 37.4049 212.8 37.3301 213.485 37.1838C214.181 37.0339 214.656 36.884 214.935 36.724L214.997 36.6876V32.874L214.806 33.0003C214.552 33.1702 214.235 33.3087 213.863 33.4116C213.49 33.5165 213.178 33.5692 212.936 33.5692C212.028 33.5692 211.357 33.3245 210.94 32.8418C210.518 32.3547 210.305 31.5026 210.305 30.3109V21.0116H214.997ZM180.265 33.5696C178.562 33.5696 177.22 33.0051 176.274 31.8931C175.322 30.7755 174.84 29.1821 174.84 27.1578C174.84 25.0693 175.322 23.4346 176.275 22.2972C177.221 21.1674 178.55 20.594 180.226 20.594C181.853 20.594 183.147 21.1416 184.075 22.2227C185.007 23.3091 185.48 24.9308 185.48 27.0437C185.48 29.1827 185.035 30.8256 184.158 31.9246C183.287 33.0155 181.977 33.5696 180.265 33.5696ZM180.473 16.7586C177.225 16.7586 174.646 17.7102 172.807 19.5873C170.968 21.4646 170.036 24.0623 170.036 27.3093C170.036 30.3931 170.946 32.8736 172.741 34.6808C174.535 36.4887 176.977 37.4045 179.998 37.4045C183.147 37.4045 185.675 36.4396 187.514 34.5366C189.352 32.6354 190.283 30.0623 190.283 26.8912C190.283 23.7591 189.409 21.2601 187.685 19.4649C185.96 17.6689 183.533 16.7586 180.473 16.7586ZM162.474 16.7585C160.265 16.7585 158.437 17.3235 157.041 18.4378C155.637 19.5586 154.924 21.0288 154.924 22.8076C154.924 23.7322 155.078 24.5537 155.381 25.2502C155.685 25.9494 156.156 26.5646 156.782 27.081C157.404 27.5934 158.362 28.1301 159.633 28.6759C160.701 29.1155 161.498 29.4876 162.004 29.7806C162.499 30.0677 162.85 30.3566 163.048 30.6377C163.241 30.9128 163.339 31.2893 163.339 31.7543C163.339 33.0774 162.348 33.7212 160.309 33.7212C159.553 33.7212 158.69 33.5635 157.745 33.252C156.799 32.9411 155.915 32.4939 155.119 31.9206L154.924 31.7811V36.2966L154.996 36.3299C155.659 36.6362 156.496 36.8944 157.482 37.0978C158.467 37.3012 159.361 37.4049 160.138 37.4049C162.535 37.4049 164.466 36.837 165.874 35.7162C167.292 34.5877 168.011 33.0829 168.011 31.2422C168.011 29.9147 167.624 28.776 166.861 27.8578C166.104 26.947 164.79 26.111 162.957 25.3718C161.497 24.7857 160.561 24.2991 160.176 23.9258C159.804 23.5649 159.615 23.0547 159.615 22.4086C159.615 21.8357 159.848 21.3769 160.327 21.0051C160.809 20.6316 161.48 20.4416 162.323 20.4416C163.104 20.4416 163.904 20.565 164.699 20.8069C165.493 21.0488 166.191 21.3728 166.774 21.7692L166.965 21.9002V17.6166L166.892 17.5849C166.354 17.3545 165.646 17.1573 164.785 16.9972C163.928 16.8388 163.15 16.7585 162.474 16.7585ZM142.697 33.5696C140.995 33.5696 139.652 33.0051 138.706 31.8931C137.754 30.7755 137.273 29.1827 137.273 27.1578C137.273 25.0693 137.755 23.4346 138.707 22.2972C139.653 21.1674 140.982 20.594 142.659 20.594C144.285 20.594 145.579 21.1416 146.507 22.2227C147.439 23.3091 147.912 24.9308 147.912 27.0437C147.912 29.1827 147.467 30.8256 146.59 31.9246C145.719 33.0155 144.41 33.5696 142.697 33.5696ZM142.906 16.7586C139.657 16.7586 137.077 17.7102 135.239 19.5873C133.401 21.4646 132.468 24.0623 132.468 27.3093C132.468 30.3944 133.379 32.8736 135.173 34.6808C136.968 36.4887 139.409 37.4045 142.431 37.4045C145.579 37.4045 148.108 36.4396 149.946 34.5366C151.784 32.6354 152.716 30.0623 152.716 26.8912C152.716 23.7591 151.842 21.2601 150.117 19.4649C148.391 17.6689 145.965 16.7586 142.906 16.7586ZM125.348 20.644V17.2331H120.715V36.9292H125.348V26.854C125.348 25.1406 125.737 23.7333 126.503 22.6702C127.26 21.6198 128.269 21.0875 129.5 21.0875C129.917 21.0875 130.385 21.1563 130.893 21.2925C131.395 21.4278 131.759 21.5746 131.973 21.7292L132.168 21.8703V17.1994L132.093 17.1671C131.661 16.9837 131.051 16.8912 130.279 16.8912C129.115 16.8912 128.072 17.2654 127.18 18.0019C126.397 18.6493 125.83 19.537 125.398 20.644H125.348ZM112.418 16.7585C110.293 16.7585 108.397 17.2144 106.784 18.1128C105.168 19.0133 103.918 20.299 103.068 21.9339C102.222 23.5649 101.792 25.47 101.792 27.5944C101.792 29.4553 102.209 31.1633 103.032 32.6683C103.856 34.1759 105.023 35.3554 106.499 36.1735C107.974 36.9905 109.678 37.4049 111.564 37.4049C113.766 37.4049 115.646 36.9645 117.153 36.0966L117.214 36.0615V31.8169L117.019 31.959C116.337 32.4563 115.574 32.8532 114.753 33.1393C113.934 33.4251 113.187 33.5695 112.533 33.5695C110.715 33.5695 109.255 33.0005 108.196 31.8793C107.134 30.7562 106.596 29.1794 106.596 27.1951C106.596 25.1983 107.157 23.581 108.264 22.3875C109.367 21.1977 110.829 20.5941 112.609 20.5941C114.132 20.5941 115.616 21.1098 117.02 22.1283L117.214 22.2693V17.7969L117.151 17.7616C116.623 17.4659 115.903 17.2217 115.008 17.0365C114.117 16.8518 113.246 16.7585 112.418 16.7585ZM98.6009 17.2332H93.9677V36.9293H98.6009V17.2332ZM96.3316 8.84249C95.5691 8.84249 94.904 9.10203 94.3576 9.61643C93.8089 10.1324 93.5304 10.7819 93.5304 11.5483C93.5304 12.3027 93.8056 12.9403 94.3488 13.4425C94.8887 13.9431 95.5558 14.1969 96.3316 14.1969C97.1071 14.1969 97.7768 13.9431 98.3232 13.4433C98.8732 12.9403 99.152 12.3027 99.152 11.5483C99.152 10.8086 98.8807 10.1656 98.3458 9.63721C97.8117 9.10982 97.1338 8.84249 96.3316 8.84249ZM84.7716 15.78V36.9292H89.5V9.44564H82.9559L74.6377 29.8595L66.5655 9.44564H59.7549V36.9292H64.1982V15.778H64.351L72.8749 36.9292H76.2282L84.6191 15.78H84.7716Z" fill="#221f26"/>
<path d="M21.9402 22.0569H0.144653V0.261353H21.9402V22.0569Z" fill="#F1511B"/>
<path d="M46.005 22.0569H24.2097V0.261353H46.005V22.0569Z" fill="#80CC28"/>
<path d="M21.9396 46.1303H0.144653V24.3348H21.9396V46.1303Z" fill="#00ADEF"/>
<path d="M46.005 46.1303H24.2097V24.3348H46.005V46.1303Z" fill="#FBBC09"/>
</g>
<defs>
<clipPath id="clip0_11_72">
<rect width="214.852" height="46.1596" fill="white" transform="translate(0.144653 0.261353)"/>
</clipPath>
</defs>
</svg>
