<svg width="175" height="48" viewBox="0 0 175 48" fill="none" xmlns="http://www.w3.org/2000/svg">
<g clip-path="url(#clip0_11_87)">
<path d="M116.068 0.969299V34.9104C120.254 35.1052 124.43 35.3406 128.594 35.6184V42.8143C122.011 42.3756 115.401 42.0406 108.764 41.8123V0.969299H116.068ZM174.105 0.97332L164.595 23.0222L174.103 47.5585L174.092 47.5632C171.323 47.168 168.55 46.795 165.768 46.4374L160.429 32.6662L155.039 45.159C152.484 44.877 149.926 44.6101 147.362 44.36L156.634 22.8748L148.143 0.97332H156.044L160.798 13.2296L166.084 0.97332H174.105ZM83.6979 41.4556L83.6977 0.97319H104.085V8.23379H91.0013V17.6439H100.901V24.8398H91.0013V41.4539L83.6979 41.4556ZM56.4263 8.2344L56.4261 0.972812H79.0158V8.23389H71.3725V41.6526C68.9347 41.7164 66.4996 41.792 64.0693 41.8837V8.2344H56.4263ZM31.4584 43.9757V0.97403H51.7444V8.23463H38.7608V18.0697C41.7437 18.0315 45.9848 17.9882 48.6234 17.9946V25.1911C45.3205 25.1501 41.5923 25.2364 38.7608 25.2647V36.1591C43.0761 35.8197 47.4043 35.5228 51.7444 35.2721V42.4687C44.9517 42.86 38.1894 43.3641 31.4584 43.9757ZM17.1313 27.3403L17.1309 0.972847H24.4345V44.654C21.7646 44.9287 19.0997 45.2209 16.4395 45.5294L7.98238 21.2332V46.5701C5.54317 46.8878 3.10894 47.219 0.679199 47.5648V0.97332H7.62003L17.1313 27.3403ZM134.619 43.2484V0.973367H141.923V43.8516C139.491 43.6351 137.057 43.435 134.619 43.2484Z" fill="#DB202C"/>
</g>
<defs>
<clipPath id="clip0_11_87">
<rect width="173.426" height="46.7438" fill="white" transform="translate(0.679199 0.969299)"/>
</clipPath>
</defs>
</svg>
